<?xml version="1.0" standalone="no"?>
<!DOCTYPE svg PUBLIC "-//W3C//DTD SVG 20010904//EN"
 "http://www.w3.org/TR/2001/REC-SVG-20010904/DTD/svg10.dtd">
<svg version="1.0" xmlns="http://www.w3.org/2000/svg"
 width="363.000000pt" height="493.000000pt" viewBox="0 0 363.000000 493.000000"
 preserveAspectRatio="xMidYMid meet">

<g transform="translate(0.000000,493.000000) scale(0.100000,-0.100000)"
fill="#000000" stroke="none">
<path d="M1713 4490 c-50 -28 -341 -175 -645 -328 -535 -269 -553 -279 -556
-308 -2 -19 4 -36 15 -46 10 -9 140 -75 288 -146 149 -71 437 -213 641 -316
204 -102 380 -186 391 -186 18 0 1054 509 1236 607 74 40 92 62 83 99 -5 19
-54 47 -259 150 -248 124 -453 229 -834 425 -145 75 -200 99 -230 99 -27 0
-65 -15 -130 -50z"/>
<path d="M2891 3621 c-8 -14 -11 -405 -11 -1277 0 -1247 0 -1257 -20 -1290
-40 -63 -58 -65 -491 -62 -414 3 -410 3 -430 55 -4 12 -11 144 -15 292 l-7
271 48 52 c178 193 453 465 484 479 143 64 140 269 -5 339 -122 60 -264 -31
-264 -169 0 -56 18 -101 58 -143 l26 -28 -85 -87 c-46 -48 -123 -128 -171
-178 l-88 -90 0 386 0 387 24 6 c34 8 93 78 106 126 30 111 -53 227 -170 238
-157 15 -265 -140 -194 -279 16 -32 80 -89 99 -89 13 0 15 -59 15 -430 0 -236
-2 -430 -5 -430 -3 0 -89 77 -190 172 l-185 172 0 127 0 127 43 25 c48 28 83
83 93 144 9 59 -30 142 -85 178 -105 70 -253 25 -297 -90 -33 -87 4 -191 86
-237 l40 -23 0 -149 0 -148 38 -37 c20 -20 127 -120 238 -223 l201 -187 6
-143 c13 -266 9 -363 -12 -389 l-19 -24 -399 -3 c-439 -3 -441 -2 -487 61 -21
28 -21 34 -21 958 l0 929 33 32 32 33 138 2 c159 3 215 14 295 56 90 47 126
100 95 139 -10 12 -246 144 -456 254 -40 20 -58 7 -82 -59 -19 -51 -35 -73
-93 -127 -158 -147 -183 -175 -200 -225 -16 -44 -17 -152 -17 -1199 0 -1213 0
-1199 45 -1285 24 -48 112 -133 160 -155 97 -46 89 -46 1065 -46 752 0 935 3
976 14 154 41 267 160 295 310 6 33 8 493 7 1207 l-3 1154 -28 57 c-18 36 -49
76 -85 108 l-57 51 -5 187 -5 187 -27 3 c-18 2 -30 -3 -37 -17z m-996 -817
c26 -10 46 -59 36 -87 -11 -29 -48 -57 -74 -57 -10 0 -32 14 -49 30 -24 25
-29 36 -23 58 13 53 57 76 110 56z m-496 -254 c29 -15 45 -64 30 -92 -38 -72
-130 -60 -145 19 -11 58 60 103 115 73z m1018 -192 c58 -55 -9 -154 -80 -117
-50 27 -60 70 -26 113 26 33 73 35 106 4z m-497 -1574 c63 -38 80 -128 35
-183 -93 -110 -267 -10 -211 122 28 67 114 97 176 61z"/>
<path d="M2635 3409 c-49 -28 -159 -84 -243 -124 -86 -42 -155 -81 -159 -91
-10 -27 29 -85 82 -122 72 -49 141 -65 275 -64 158 1 150 -12 150 248 0 112
-3 204 -7 204 -5 0 -48 -23 -98 -51z"/>
</g>
</svg>
